<?xml version="1.0" encoding="utf-8"?>
<!DOCTYPE svg PUBLIC "-//W3C//DTD SVG 1.1//EN" "http://www.w3.org/Graphics/SVG/1.1/DTD/svg11.dtd">
<svg version="1.1" id="图形" xmlns="http://www.w3.org/2000/svg" xmlns:xlink="http://www.w3.org/1999/xlink" x="0px" y="0px" width="1024px" height="1024px" viewBox="0 0 1024 1024" enable-background="new 0 0 1024 1024" xml:space="preserve">
  <path fill="#272636" d="M829.3376-141.0368 769.024-141.0368c-21.2992 36.2496-42.7008 81.5104-63.8976 134.8608l26.3168 0c10.6496 0 19.2512 8.6016 19.2512 19.2512s-8.6016 19.2512-19.2512 19.2512l-41.0624 0c-29.4912 79.7696-58.4704 174.8992-86.016 283.136-40.3456 158.5152-63.6928 290.0992-63.8976 291.4304-0.1024 0.3072-0.2048 0.7168-0.2048 1.024l31.6416 0c5.9392 0 10.6496 4.8128 10.6496 10.6496l0 37.0688c0 5.9392-4.8128 10.6496-10.6496 10.6496l-2.048 0c-3.584 19.8656-19.1488 35.6352-38.912 39.424L530.944 758.4448c0 5.9392-4.8128 10.6496-10.6496 10.6496s-10.6496-4.8128-10.6496-10.6496l0-53.3504c-18.432-4.7104-32.6656-19.8656-36.0448-38.8096l-2.56 0c-5.9392 0-10.6496-4.8128-10.6496-10.6496l0-37.0688c0-5.9392 4.8128-10.6496 10.6496-10.6496l29.696 0c-0.1024-0.3072-0.2048-0.7168-0.2048-1.024-0.2048-0.9216-12.8-72.3968-35.5328-173.1584-0.4096-1.024-0.6144-2.048-0.7168-3.072-7.9872-35.4304-17.3056-74.4448-27.648-115.2-27.5456-108.2368-56.5248-203.3664-86.016-283.136l-46.6944 0c-10.6496 0-19.2512-8.6016-19.2512-19.2512s8.6016-19.2512 19.2512-19.2512L335.872-6.176c-21.1968-53.3504-42.5984-98.6112-63.8976-134.8608L212.992-141.0368c-10.6496 0-19.2512-8.6016-19.2512-19.2512s8.6016-19.2512 19.2512-19.2512l616.3456 0c10.6496 0 19.2512 8.6016 19.2512 19.2512S839.9872-141.0368 829.3376-141.0368zM642.8672 50.4512 437.248 113.3248l164.1472 66.9696c13.2096-45.1584 26.7264-87.3472 40.2432-126.3616C642.048 52.704 642.4576 51.5776 642.8672 50.4512zM473.9072 306.2464c8.2944 32.4608 15.7696 63.7952 22.6304 93.0816l58.7776-46.08-82.944-53.0432C472.8832 302.2528 473.3952 304.1984 473.9072 306.2464zM566.9888 306.2464c8.192-31.9488 16.384-62.976 24.7808-92.7744L464.0768 268.256c0.1024 0.512 0.3072 1.024 0.4096 1.536l96.256 61.6448C562.7904 323.1424 564.8384 314.7456 566.9888 306.2464zM458.4448 247.4688l122.2656-52.4288-155.9552-63.5904C436.224 168.0064 447.3856 206.7136 458.4448 247.4688zM547.328 386.6304 501.76 422.368c7.2704 32.0512 13.5168 61.2352 18.6368 86.2208C527.4624 474.592 536.576 432.8128 547.328 386.6304zM521.6256 685.3312c12.1856 0 22.528-7.9872 26.112-18.944l-52.3264 0C499.0976 677.344 509.44 685.3312 521.6256 685.3312zM481.6896 644.9856 561.152 644.9856l0-15.6672-79.4624 0L481.6896 644.9856zM399.2576 53.9328c5.0176 14.336 9.9328 28.9792 14.848 44.1344l214.8352-65.7408L391.5776 32.3264C394.1376 39.392 396.6976 46.56 399.2576 53.9328zM663.6544-6.176c4.1984-10.8544 8.3968-21.2992 12.5952-31.5392L364.6464-37.7152c4.1984 10.24 8.3968 20.6848 12.5952 31.5392L663.6544-6.176zM355.9424-58.2976c1.2288-0.512 2.56-0.8192 3.9936-0.8192l325.3248 0c13.1072-30.3104 26.3168-57.6512 39.5264-81.92L316.1088-141.0368C329.4208-116.5632 342.7328-88.9152 355.9424-58.2976z" transform="translate(0, 812) scale(1, -1)"/>
</svg>
