<?xml version="1.0" encoding="utf-8"?>
<!DOCTYPE svg PUBLIC "-//W3C//DTD SVG 1.1//EN" "http://www.w3.org/Graphics/SVG/1.1/DTD/svg11.dtd">
<svg version="1.1" id="图形" xmlns="http://www.w3.org/2000/svg" xmlns:xlink="http://www.w3.org/1999/xlink" x="0px" y="0px" width="1024px" height="1024px" viewBox="0 0 1024 1024" enable-background="new 0 0 1024 1024" xml:space="preserve">
  <path fill="#ee1e1e" d="M511.988231 542.711857l0.833005 0c121.300524-0.183172 219.433469-98.353029 219.657582-219.729423-0.142245-66.367547-26.398288-125.642558-61.372234-175.713954 52.633864 27.696806 119.00413 85.795015 119.065531 175.713954-0.061401 153.218614-124.227299 277.338493-277.349856 277.379425l-0.833005 0c-153.12358-0.040932-277.308922-124.159788-277.348833-277.379425 0.040934-89.918939 66.390733-148.017148 119.044041-175.713954-34.953479 50.071396-61.249432 109.345384-61.351767 175.713954C292.535319 444.358829 390.688731 542.528686 511.988231 542.711857zM512.029165 748.845635c-235.243174 0-425.819249-190.629665-425.860183-425.76087 0-63.076594 13.757892-123.022894 38.367368-176.872337C173.918014 38.26795 267.072371-27.306534 381.340446-57.11749l-7.762096 16.033162C286.336899 1.670427 215.780116 85.452599 176.864233 170.861828c-21.154652 46.37112-32.921109 97.925287-33.002977 152.222937 0.325425 203.309452 164.849103 367.725082 368.167909 368.131335 203.276849-0.406253 367.760616-164.821883 368.106508-368.131335-0.264024-151.552671-91.75237-299.976072-222.501467-363.396497l-6.645623-17.435091c166.901939 51.269687 286.81992 194.347337 286.840387 380.831588C937.788037 558.216993 747.191495 748.845635 512.029165 748.845635zM512.983949 256.8789c-104.799035 0-124.388988-63.258743-124.388988-63.258743-12.234127-150.47513 70.861741-335.455121 70.861741-335.455121s21.622323-10.079566 52.81602-10.079566c31.274542 0 52.327883 10.079566 52.327883 10.079566s83.034467 184.981015 70.820807 335.455121C635.422436 193.620158 617.782984 256.8789 512.983949 256.8789zM418.264893 381.872682c0-51.777247 41.984904-93.76043 93.723338-93.76043 51.779369 0 93.764272 41.983183 93.764272 93.76043 0 51.756781-41.98388 93.738941-93.764272 93.738941C460.249797 475.611623 418.264893 433.629463 418.264893 381.872682z" transform="translate(0, 812) scale(1, -1)"/>
</svg>
