<?xml version="1.0" encoding="utf-8"?>
<!DOCTYPE svg PUBLIC "-//W3C//DTD SVG 1.1//EN" "http://www.w3.org/Graphics/SVG/1.1/DTD/svg11.dtd">
<svg version="1.1" id="图形" xmlns="http://www.w3.org/2000/svg" xmlns:xlink="http://www.w3.org/1999/xlink" x="0px" y="0px" width="1024px" height="1024px" viewBox="0 0 1024 1024" enable-background="new 0 0 1024 1024" xml:space="preserve">
  <path fill="#fb0909" d="M685.504 556.704c-42.176 48.256-104.192 78.848-173.44 78.848-68.8 0-130.496-30.336-172.736-78.208l0.448-0.384c-5.76-8.32 2.176-25.088 18.304-37.888 15.168-12.224 32.256-16.512 39.808-10.368l1.088-0.96C427.84 541.216 470.4 562.4 517.952 562.4c44.544 0 84.416-18.432 113.088-48 0.192-0.32 0.192-0.64 0.448-0.96 5.696-7.168 22.336-3.392 37.056 8.64 14.592 11.776 21.76 26.944 16.512 34.24L685.504 556.704zM774.272 626.272c-0.704 0.704-1.408 1.408-1.984 2.176-0.128 0.128-0.192 0.384-0.32 0.512-0.256 0.32-0.576 0.448-0.768 0.704C708.224 702.048 615.488 748 512.064 748 408.896 748 316.48 702.368 253.568 630.304 253.056 629.856 252.416 629.472 251.968 628.96c-6.464-8.064 1.536-25.28 17.92-38.4C285.952 577.696 304 573.6 310.784 581.088l0.32-0.32c49.024 56 120.768 91.456 200.96 91.456 80.96 0 153.344-36.096 202.304-92.864l0.448 0.32c7.808-5.312 24.448-0.96 39.168 10.944 14.592 11.584 22.464 26.304 19.584 35.2L774.272 626.272zM760.896-97.056 760.896-97.056 573.44 355.36C590.912 369.76 602.304 391.264 602.304 415.648c0 43.328-35.136 78.528-78.464 78.528S445.44 458.912 445.44 415.648c0-26.368 13.12-49.664 33.28-63.872l-187.008-450.816c-0.192-0.512-0.448-0.96-0.512-1.344l-0.768-1.664 0.192-0.064c-1.216-3.456-1.984-7.104-1.984-11.072C288.576-132.512 304.128-148 323.392-148s34.752 15.488 34.752 34.752l44.416 111.232 249.664 0 44.032-103.872c-0.576-2.368-0.768-4.8-0.768-7.36 0-19.264 15.488-34.752 34.752-34.752 19.136 0 34.816 15.488 34.816 34.752C765.056-107.36 763.392-101.92 760.896-97.056zM523.904 301.92l57.92-137.28L469.056 164.64 523.904 301.92zM419.392 40.16l31.296 78.464 150.656 0 33.152-78.464L419.392 40.16z" transform="translate(0, 812) scale(1, -1)"/>
</svg>
